<svg width="50" height="50" viewBox="0 0 50 50" fill="none" xmlns="http://www.w3.org/2000/svg">
<g clip-path="url(#clip0_5_8)">
<path d="M10.3987 0.574321C10.092 0.945943 9.96929 2.12838 9.96929 4.52702V7.93919H11.3497H12.73L12.8221 4.96621L12.9141 2.02702H24.0797H35.276V6.04729C35.276 10 35.276 10.0676 36.1656 11.1149L37.0552 12.1622H40.7668H44.4785L44.4171 30.473L44.3251 48.8176H28.6809H13.0368L12.9448 45.2703C12.8834 42.0608 12.7914 41.6216 12.1165 40.7095L11.3497 39.6959L10.5828 40.7095C9.87727 41.6554 9.81592 41.9932 9.81592 45.1014C9.81592 46.9595 9.90794 48.8176 9.99997 49.2568L10.184 50L28.8036 49.9324L47.3926 49.8311L47.4846 30.2365L47.546 10.6419L42.73 5.33783L37.8834 -3.27826e-06H24.3558C12.1472 -3.27826e-06 10.7668 0.0675643 10.3987 0.574321Z" fill="black"/>
<path d="M10.0305 12.4324C9.72377 12.7703 9.50904 13.2432 9.50904 13.4459C9.50904 13.9865 9.26365 13.9527 8.7115 13.3446C8.43542 13.0743 7.91395 12.8378 7.51518 12.8378C6.56426 12.8378 5.42929 14.4257 5.64401 15.4054C5.79739 16.0135 5.70536 16.1149 5.03052 15.9459C3.43542 15.6081 2.11641 18.1419 3.2207 19.3919C3.80352 20 3.80352 20.2703 3.28205 20.2703C2.63788 20.2703 1.84033 21.4189 1.84033 22.3649C1.84033 23.2432 2.66855 24.3243 3.3434 24.3243C3.61947 24.3243 3.5888 24.527 3.25138 25.0676C2.9753 25.473 2.76058 26.1486 2.76058 26.554C2.76058 27.6013 4.2023 28.8176 5.15322 28.5473C5.76671 28.3784 5.85874 28.4459 5.67469 29.054C5.42929 29.8986 6.16549 31.2838 7.02438 31.5878C7.3618 31.6892 8.06733 31.554 8.5888 31.25C9.325 30.8108 9.50904 30.8108 9.50904 31.1824C9.50904 31.8919 10.552 32.7703 11.4109 32.7703C12.1778 32.7703 13.19 31.8581 13.19 31.1149C13.19 30.8446 13.4661 30.8784 14.1103 31.25C14.6317 31.554 15.3373 31.6892 15.6747 31.5878C16.5336 31.2838 17.2698 29.8986 17.0244 29.054C16.8403 28.4459 16.9017 28.3784 17.6072 28.5811C18.19 28.7162 18.5581 28.5811 19.1409 27.9054C20.0612 26.9257 20.1532 26.1486 19.4477 25.0676C19.0796 24.4595 19.0489 24.3243 19.417 24.3243C20.0919 24.3243 20.8587 23.1757 20.8587 22.1959C20.8587 21.6216 20.552 21.0473 19.9078 20.5067C19.0796 19.7973 19.0489 19.6622 19.4477 19.2905C20.644 18.1757 19.2023 15.5743 17.6379 16.0135C16.9324 16.2162 16.871 16.1486 17.0244 15.4392C17.2698 14.4257 16.1655 12.8378 15.2146 12.8378C14.8465 12.8378 14.233 13.0743 13.8649 13.3784C13.3127 13.7838 13.19 13.8176 13.19 13.4122C13.19 12.027 10.9201 11.3176 10.0305 12.4324ZM13.7422 17.9054C15.8587 19.3243 16.6256 22.6013 15.3373 24.9324C13.4661 28.3108 8.86487 28.1419 7.30046 24.6622C5.70536 21.1824 7.8526 17.2297 11.3495 17.2297C12.1778 17.2297 13.1287 17.5 13.7422 17.9054Z" fill="black"/>
<path d="M25.2759 20.4054C25.1839 20.6756 25.1532 21.1824 25.2145 21.5202C25.3066 22.0608 25.736 22.1284 29.6931 22.2297L34.0489 22.3311V21.1148V19.9324H29.7544C26.2882 19.9324 25.3986 20.0338 25.2759 20.4054Z" fill="black"/>
<path d="M25.2759 25.4729C25.1839 25.7432 25.1532 26.3175 25.2145 26.7567L25.3066 27.5338H32.2084H39.1102V26.3513V25.1689L32.2697 25.0675C26.5336 25 25.4293 25.0675 25.2759 25.4729Z" fill="black"/>
<path d="M25.2759 30.8783C25.1839 31.1486 25.1532 31.6554 25.2145 31.9932C25.3066 32.5675 25.7974 32.6013 32.2084 32.6013H39.1102V31.5878V30.5743L32.2697 30.4729C26.5029 30.4054 25.4293 30.4729 25.2759 30.8783Z" fill="black"/>
<path d="M3.31281 35.4054C2.33122 37.196 1.68705 38.7162 1.84042 38.7838C1.99379 38.8514 2.88336 38.5135 3.80361 38.0743C4.72386 37.6014 5.55208 37.2973 5.6441 37.4325C5.73613 37.5338 5.82815 38.5135 5.82815 39.5946C5.82815 40.6757 5.95085 41.5541 6.10422 41.5541C6.34962 41.5541 9.57048 35.9122 9.96925 34.7298C10.2453 33.9527 8.98766 33.1081 7.57662 33.1081C6.93244 33.1081 6.10422 32.9054 5.73613 32.6352C5.09195 32.1622 4.99993 32.2298 3.31281 35.4054Z" fill="black"/>
<path d="M17.0245 32.6352C16.7177 32.9054 15.8895 33.1081 15.2147 33.1081C14.4785 33.1081 13.6503 33.3784 13.2208 33.75L12.4846 34.3919L14.3865 37.973C15.4601 39.9325 16.4417 41.5541 16.595 41.5541C16.7484 41.5541 16.8711 40.6757 16.8711 39.5946C16.8711 38.5135 16.9631 37.5338 17.0552 37.4325C17.1472 37.2973 17.9754 37.6014 18.8957 38.0743C19.8159 38.5135 20.7055 38.8514 20.8589 38.7838C21.0122 38.7162 20.3681 37.2298 19.3865 35.4054C17.73 32.3649 17.5766 32.196 17.0245 32.6352Z" fill="black"/>
<path d="M25.46 36.6554V37.8378H32.3925H39.2943L39.2023 36.723L39.1103 35.6419L32.3005 35.5405L25.46 35.473V36.6554Z" fill="black"/>
</g>
<defs>
<clipPath id="clip0_5_8">
<rect width="50" height="50" fill="white"/>
</clipPath>
</defs>
</svg>
