<svg width="60" height="70" viewBox="0 0 60 70" fill="none" xmlns="http://www.w3.org/2000/svg">
<path d="M45.3084 10.1752C44.5945 10.5189 44.3426 11.421 44.7415 12.0654C44.9305 12.3446 47.2189 13.8052 49.8433 15.3517C54.7981 18.2299 55.8898 19.0891 56.7086 20.6571L57.1915 21.5807V35.9717V50.3627L56.7086 51.2648C55.9108 52.8113 55.008 53.4987 49.6123 56.6776C46.736 58.3959 41.7392 61.3385 38.506 63.2502C35.2728 65.1618 32.3125 66.8372 31.9136 66.9661C30.9898 67.2883 29.0163 67.2883 28.0925 66.9661C26.8328 66.5365 5.16604 53.606 4.45221 52.8758C4.07431 52.4891 3.54943 51.7588 3.29749 51.2648L2.81461 50.3627V35.9717V21.5807L3.44446 20.4208C3.78038 19.7764 4.36824 19.0032 4.74614 18.7025C5.12405 18.4017 7.58046 16.8767 10.2048 15.3302C15.4326 12.2587 15.8735 11.8506 15.3066 10.7767C14.6558 9.5953 14.0889 9.76713 8.75618 12.9246C3.6754 15.9316 2.33173 16.9412 1.28198 18.6165C-0.0616968 20.7645 -0.0407019 20.5711 0.0222829 36.4442L0.0852677 50.8138L0.883075 52.4462C1.42894 53.5846 1.99581 54.4008 2.79361 55.1311C4.07431 56.2909 25.4052 69.0066 27.1687 69.6295C28.5754 70.1235 31.4307 70.1235 32.8374 69.6295C34.6009 69.0066 55.9528 56.2909 57.2125 55.1311C58.0103 54.4008 58.5772 53.5846 59.123 52.4462L59.9208 50.8138L59.9838 36.4442C60.0258 23.7501 60.0048 21.9028 59.6899 20.8504C59.27 19.3039 58.3462 17.8433 57.0865 16.6834C56.2467 15.9102 47.1349 10.3686 46.1482 10.0249C45.9592 9.96045 45.5813 10.0249 45.3084 10.1752Z" fill="black"/>
<path d="M12.0943 30.7953C10.0788 31.547 8.79813 33.3083 8.63017 35.6281C8.5042 37.4967 9.09206 38.9573 10.4357 40.1816C12.1573 41.7281 14.4248 42.0074 16.5453 40.9549C19.1066 39.6661 20.1984 36.165 18.8967 33.5446C18.3508 32.4491 16.8182 31.0745 15.7684 30.7523C14.6977 30.4086 13.0811 30.4301 12.0943 30.7953Z" fill="black"/>
<path d="M44.1117 30.7737C43.188 31.0744 41.6343 32.5135 41.1095 33.5445C40.5006 34.7473 40.3956 36.2079 40.7736 37.604C41.8863 41.5132 46.5682 42.8664 49.5704 40.1815C50.9141 38.9572 51.502 37.4967 51.376 35.628C51.208 33.3082 49.9273 31.5469 47.9118 30.7952C46.9671 30.473 45.0985 30.4515 44.1117 30.7737Z" fill="black"/>
<path d="M27.9456 36.1865C25.3632 37.3464 23.9566 40.4179 24.8384 43.0813C25.3002 44.4989 26.14 45.5084 27.5047 46.2817C31.2418 48.3437 35.8397 45.2077 35.3988 40.8904C35.1889 38.7855 33.8872 36.9812 31.9976 36.165C31.0739 35.7784 28.8484 35.7784 27.9456 36.1865Z" fill="black"/>
<path d="M8.63024 42.8235C6.7197 43.4679 5.56498 44.864 5.20807 47.0334C4.93513 48.5155 5.18707 49.9331 5.8799 50.9212C6.42577 51.7374 16.7973 57.8374 17.4481 57.73C17.931 57.6656 17.931 57.6012 18.036 54.4223C18.1409 51.2004 18.1619 51.1789 18.9388 49.5465C19.5266 48.3437 20.0515 47.6349 20.8703 46.8831C21.7311 46.1313 22.025 45.7232 22.025 45.2936C22.025 44.6278 21.2272 43.7471 20.0305 43.0813C19.2537 42.6732 18.8548 42.6302 14.3619 42.5873C10.7507 42.5443 9.30208 42.6087 8.63024 42.8235Z" fill="black"/>
<path d="M40.9205 42.7162C39.3459 43.2102 37.9812 44.413 37.9812 45.2937C37.9812 45.7233 38.2751 46.1314 39.1359 46.8831C39.9547 47.6349 40.4796 48.3437 41.0675 49.5465C41.8443 51.179 41.8653 51.2004 41.9702 54.4223L42.0752 57.6656H42.7051C43.5239 57.6656 53.5594 51.7374 54.1473 50.9212C55.554 48.8807 54.9661 45.2292 52.9926 43.6827C51.7119 42.6732 50.7041 42.5229 45.8753 42.5443C43.4399 42.5443 41.2144 42.6303 40.9205 42.7162Z" fill="black"/>
<path d="M24.4603 48.2363C23.1586 48.7089 22.3188 49.5036 21.6679 50.8353C21.0801 52.0596 21.0801 52.1241 21.0801 55.9903C21.0801 59.6203 21.1011 59.9425 21.5 60.3291C21.7309 60.5654 23.4315 61.6393 25.2791 62.7562C28.5753 64.7108 28.6593 64.7538 30.0029 64.7538C31.3466 64.7538 31.4306 64.7108 34.7268 62.7562C36.5743 61.6393 38.2749 60.5654 38.5059 60.3291C38.9048 59.9425 38.9258 59.6203 38.9258 55.9903C38.9258 52.1241 38.9258 52.0596 38.3379 50.8353C37.6871 49.4821 36.8473 48.7089 35.4826 48.2148C34.2229 47.7638 25.678 47.7638 24.4603 48.2363Z" fill="black"/>
<path d="M42.5735 11.5826L37.3 16.133L38.9067 22.9381C38.9953 23.3075 38.9725 23.6949 38.8411 24.0514C38.7097 24.4078 38.4755 24.7173 38.1683 24.9408C37.8611 25.1643 37.4945 25.2917 37.1149 25.3069C36.7353 25.3221 36.3597 25.2245 36.0356 25.0264L30.1176 21.3842L24.1961 25.0264C23.872 25.2234 23.4969 25.3201 23.1179 25.3043C22.739 25.2885 22.3732 25.1609 22.0666 24.9376C21.76 24.7144 21.5263 24.4054 21.395 24.0496C21.2637 23.6938 21.2405 23.307 21.3285 22.9381L22.941 16.133L17.6676 11.5826C17.3808 11.3348 17.1735 11.008 17.0713 10.643C16.9692 10.278 16.9769 9.89097 17.0934 9.53031C17.2099 9.16964 17.4301 8.85129 17.7265 8.61502C18.0228 8.37875 18.3822 8.23502 18.7598 8.20179L25.6739 7.64398L28.341 1.18929C28.4854 0.837514 28.7311 0.536613 29.0469 0.324843C29.3628 0.113073 29.7344 0 30.1147 0C30.4949 0 30.8666 0.113073 31.1824 0.324843C31.4982 0.536613 31.7439 0.837514 31.8883 1.18929L34.5543 7.64398L41.4684 8.20179C41.8467 8.23379 42.2071 8.37671 42.5046 8.61266C42.802 8.8486 43.0232 9.16708 43.1405 9.52818C43.2577 9.88929 43.2658 10.277 43.1637 10.6426C43.0615 11.0083 42.8538 11.3357 42.5664 11.5838L42.5735 11.5826Z" fill="black"/>
</svg>
