<svg width="51" height="50" viewBox="0 0 51 50" fill="none" xmlns="http://www.w3.org/2000/svg">
<path d="M7.37166 10.4963C6.95129 10.1721 6.86283 9.56788 7.19122 9.15945C10.1871 5.43329 14.1809 2.66229 18.6968 1.18993C23.5107 -0.379614 28.6829 -0.396859 33.5068 1.14055C38.3307 2.67797 42.571 5.69505 45.6483 9.77958C48.7255 13.8641 50.4897 18.8168 50.6997 23.9611C50.9098 29.1054 49.5554 34.1902 46.8218 38.5209C44.0881 42.8517 40.1085 46.217 35.4265 48.1571C30.7446 50.0973 25.5888 50.5176 20.6636 49.3607C16.0464 48.2761 11.843 45.855 8.55466 42.3988C8.18965 42.0151 8.21871 41.4102 8.60318 41.0589L11.9859 37.968C12.3753 37.6122 12.9803 37.6525 13.3555 38.0355C15.7544 40.4841 18.786 42.2015 22.1077 42.9817C25.7432 43.8357 29.5489 43.5254 33.0049 42.0933C36.4608 40.6612 39.3984 38.1771 41.4162 34.9804C43.4341 31.7837 44.4338 28.0304 44.2787 24.2331C44.1237 20.4359 42.8215 16.7801 40.55 13.7651C38.2785 10.7501 35.1486 8.52309 31.5879 7.38826C28.0271 6.25342 24.2092 6.26615 20.6559 7.4247C17.4024 8.48548 14.5159 10.4595 12.3233 13.1109C11.9881 13.5163 11.3922 13.5969 10.9702 13.2715L7.37166 10.4963Z" fill="black"/>
<path d="M2.92552 26.0223C3.01686 27.7976 3.37767 29.5029 3.97241 31.0845L7.34919 30.9042C7.7849 30.881 8.16839 31.1164 8.36152 31.4733C8.95121 32.5322 9.68827 33.4831 10.5291 34.3283C10.7349 34.5064 10.869 34.7774 10.8833 35.0548C10.9004 35.3877 10.7839 35.6721 10.5981 35.8823L8.03829 38.7783C7.84595 38.9941 7.57805 39.1243 7.29235 39.1408C6.98735 39.157 6.70875 39.0495 6.5024 38.8603C3.16936 35.6447 1.00613 31.1761 0.746952 26.1386C0.487777 21.101 2.18061 16.4266 5.16542 12.8737C5.35122 12.6635 5.61726 12.5269 5.92226 12.5107C6.21637 12.495 6.49497 12.6025 6.70132 12.7917L9.54432 15.3993C9.75067 15.5886 9.89565 15.859 9.91278 16.1918C9.92282 16.476 9.82338 16.7528 9.6357 16.9632C8.88562 17.8823 8.25018 18.9064 7.77238 20.0223C7.69216 20.2139 7.56071 20.3786 7.39302 20.4977C7.22534 20.6168 7.02817 20.6855 6.82399 20.696L3.44721 20.8763C3.01802 22.5125 2.83418 24.2469 2.92552 26.0223Z" fill="black"/>
<path d="M36.001 32.6055C36.2002 32.4475 36.359 32.2428 36.4639 32.0088C36.5688 31.7748 36.6167 31.5185 36.6035 31.2616C36.5902 31.0047 36.5163 30.7549 36.3879 30.5334C36.2595 30.3119 36.0805 30.1252 35.8661 29.9893L35.8599 20.6903L34.2919 21.7604V29.9861C34.0796 30.1217 33.9024 30.3072 33.775 30.5269C33.6476 30.7466 33.5738 30.9943 33.5596 31.2491C33.5455 31.5039 33.5915 31.7584 33.6938 31.9913C33.7961 32.2243 33.9517 32.4289 34.1476 32.588L33.5549 33.3898C33.0278 34.0729 32.7358 34.9136 32.7239 35.7824V37.7342H34.0018C34.3088 37.7342 34.607 37.6299 34.8492 37.4378C35.0915 37.2457 35.2639 36.9768 35.3393 36.6737L35.8583 34.5398V37.7342H37.4263V35.8016C37.4127 34.9286 37.1186 34.0842 36.589 33.3978L36.001 32.6055ZM24.8839 12.1771L12.3399 18.566L24.8839 26.5521L37.4279 18.566L24.8839 12.1771Z" fill="black"/>
<path d="M24.8838 28.1493L17.0438 22.8305V25.5618C17.0438 27.0152 21.6537 31.3437 24.8838 31.3437C28.1138 31.3437 32.7238 27.0152 32.7238 25.5618V22.8305L24.8838 28.1493Z" fill="black"/>
</svg>
